<svg width="113" height="30" viewBox="0 0 113 30" fill="none" xmlns="http://www.w3.org/2000/svg">
<path d="M19.6817 7.95422C18.4307 7.95422 17.4123 8.97245 17.4123 10.2232V18.5154C17.4123 19.3312 17.253 20.1127 16.9408 20.836C16.6265 21.5593 16.198 22.2029 15.6662 22.7476C15.1344 23.2922 14.4992 23.727 13.7758 24.0413C13.0545 24.3556 12.26 24.5128 11.4139 24.5128C10.5957 24.5128 9.81413 24.3535 9.09285 24.0413C8.37157 23.7292 7.73426 23.2943 7.20245 22.7476C6.67064 22.2029 6.24864 21.5593 5.94936 20.836C5.65008 20.1148 5.49721 19.3334 5.49721 18.5154L5.52951 10.2705C5.53166 9.6527 5.29267 9.07147 4.85775 8.63448C4.42067 8.19748 3.84149 7.95638 3.22356 7.95638C1.9597 7.95638 0.932686 8.98321 0.932686 10.2468V18.5132C0.904696 19.9426 1.16737 21.316 1.71425 22.5926C2.26114 23.8691 3.02117 24.9907 3.97499 25.9293C4.92665 26.8678 6.05701 27.6277 7.33163 28.1874C8.60626 28.7493 9.97777 29.0464 11.4117 29.0743H11.4978C12.9275 29.0464 14.299 28.7471 15.5758 28.1874C16.8504 27.6277 17.9808 26.8678 18.9324 25.9293C19.8862 24.9885 20.6463 23.867 21.1931 22.5926C21.74 21.3182 22.0027 19.9448 21.9747 18.5132V10.2468C21.9769 8.98321 20.9477 7.95422 19.6817 7.95422Z" fill="white"/>
<path d="M37.5543 17.6543L33.8079 15.0926C33.2438 14.7072 32.4795 15.1098 32.4795 15.7922V20.9178C32.4795 21.6002 33.2438 22.0027 33.8079 21.6174L37.5543 19.0557C38.0474 18.7177 38.0474 17.9901 37.5543 17.6543Z" fill="white"/>
<path d="M44.834 13.8935C44.2462 12.5631 43.4367 11.392 42.4269 10.4104C41.4192 9.43092 40.2243 8.64303 38.8808 8.06826C37.5351 7.49349 36.071 7.20288 34.5315 7.20288C32.9921 7.20288 31.528 7.49349 30.1823 8.06826C29.39 8.40624 28.6536 8.81955 27.9733 9.30176V3.03095C27.9733 2.41097 27.7321 1.82974 27.2929 1.39274C26.8558 0.957899 26.2766 0.716797 25.6587 0.716797C25.6566 0.716797 25.6544 0.716797 25.6522 0.716797C24.3776 0.721102 23.3398 1.7587 23.3398 3.0331V18.4314H23.3441C23.37 19.8952 23.665 21.288 24.2269 22.5731C24.8147 23.9186 25.6243 25.1112 26.6341 26.1186C27.6417 27.1261 28.8345 27.9355 30.1802 28.5254C31.5258 29.113 32.9899 29.4123 34.5315 29.4123C36.0731 29.4123 37.5372 29.113 38.8829 28.5254C40.2286 27.9377 41.4214 27.1283 42.429 26.1186C43.4367 25.1112 44.2462 23.9186 44.8362 22.5731C45.424 21.2277 45.7232 19.7639 45.7232 18.2225C45.7211 16.6812 45.424 15.2238 44.834 13.8935ZM40.7259 21.077C40.3836 21.9424 39.9035 22.7152 39.3028 23.3718C38.702 24.0305 37.9808 24.5644 37.1604 24.9626C36.3423 25.3587 35.4574 25.5589 34.5315 25.5589C33.6036 25.5589 32.7122 25.3587 31.8811 24.9626C31.0479 24.5665 30.3115 24.0305 29.6979 23.3718C29.0821 22.7131 28.5826 21.9402 28.2123 21.0749C27.8441 20.2116 27.6568 19.301 27.6568 18.3711C27.6568 17.439 27.8376 16.537 28.1929 15.6867C28.5481 14.8363 29.0477 14.0721 29.6764 13.4134C30.305 12.7547 31.0392 12.2273 31.8617 11.8441C32.6799 11.4609 33.5799 11.2672 34.5337 11.2672C35.4595 11.2672 36.338 11.4609 37.1432 11.8441C37.9485 12.2273 38.6633 12.7547 39.264 13.4134C39.8647 14.0721 40.3513 14.8385 40.7087 15.6888C41.064 16.5391 41.2448 17.4433 41.2448 18.3732C41.2405 19.301 41.0683 20.2116 40.7259 21.077Z" fill="white"/>
<path d="M68.1415 13.8935C67.5537 12.5631 66.7441 11.392 65.7343 10.4104C64.7245 9.43092 63.5317 8.64088 62.1882 8.06827C60.8425 7.4935 59.3784 7.20288 57.839 7.20288C56.2995 7.20288 54.8354 7.4935 53.4897 8.06827C52.1462 8.64304 50.9534 9.43092 49.9436 10.4104C48.9338 11.392 48.1243 12.5631 47.5365 13.8935C46.9487 15.226 46.6494 16.6812 46.6494 18.2225C46.6494 19.7639 46.9487 21.2277 47.5365 22.5731C48.1243 23.9164 48.9338 25.1112 49.9436 26.1186C50.9513 27.1261 52.1462 27.9377 53.4897 28.5254C54.8354 29.113 56.2995 29.4123 57.8411 29.4123C59.3827 29.4123 60.8468 29.113 62.1925 28.5254C63.536 27.9377 64.731 27.1283 65.7386 26.1186C66.7484 25.109 67.558 23.9164 68.1458 22.5731C68.7357 21.2277 69.0328 19.7639 69.0328 18.2225C69.0285 16.6812 68.7314 15.2238 68.1415 13.8935ZM64.548 18.3689C64.548 19.301 64.3757 20.2116 64.0334 21.077C63.691 21.9424 63.2109 22.7152 62.6102 23.3718C62.0073 24.0305 61.2882 24.5644 60.4679 24.9626C59.6497 25.3587 58.7648 25.5589 57.839 25.5589C56.911 25.5589 56.0196 25.3587 55.1885 24.9626C54.3553 24.5665 53.6211 24.0305 53.0053 23.3718C52.3895 22.7131 51.89 21.9403 51.5197 21.0749C51.1515 20.2116 50.9642 19.301 50.9642 18.3711C50.9642 17.439 51.145 16.537 51.5003 15.6867C51.8556 14.8363 52.3551 14.0721 52.9838 13.4134C53.6125 12.7547 54.3467 12.2273 55.1691 11.8441C55.9873 11.4609 56.8873 11.2672 57.8411 11.2672C58.7669 11.2672 59.6454 11.4609 60.4507 11.8441C61.2559 12.2273 61.9707 12.7547 62.5714 13.4134C63.1743 14.0721 63.6587 14.8385 64.0162 15.6888C64.3671 16.5348 64.548 17.439 64.548 18.3689Z" fill="white"/>
<path d="M91.9559 13.8935C91.3681 12.5631 90.5585 11.392 89.5488 10.4104C88.5411 9.43092 87.3483 8.64304 86.0026 8.06827C84.657 7.4935 83.1929 7.20288 81.6534 7.20288C80.114 7.20288 78.6499 7.4935 77.3042 8.06827C75.9607 8.64304 74.7657 9.43092 73.7581 10.4104C72.7483 11.392 71.9387 12.5631 71.3509 13.8935C70.761 15.226 70.4639 16.6812 70.4639 18.2225C70.4639 19.7639 70.7632 21.2277 71.3509 22.5731C71.9387 23.9164 72.7483 25.109 73.7559 26.1186C74.7636 27.1261 75.9585 27.9355 77.302 28.5254C78.6477 29.113 80.1118 29.4123 81.6534 29.4123C83.195 29.4123 84.6591 29.113 86.0048 28.5254C87.3505 27.9377 88.5433 27.1283 89.5509 26.1186C90.5607 25.109 91.3703 23.9164 91.958 22.5731C92.548 21.2277 92.8451 19.7639 92.8451 18.2225C92.843 16.6834 92.5458 15.226 91.9559 13.8935ZM88.3624 18.3689C88.3624 19.301 88.1902 20.2116 87.8478 21.077C87.5055 21.9424 87.0275 22.7131 86.4246 23.3718C85.8218 24.0305 85.1005 24.5644 84.2823 24.9626C83.4642 25.3587 82.5792 25.5589 81.6534 25.5589C80.7254 25.5589 79.8341 25.3587 79.003 24.9626C78.1697 24.5665 77.4355 24.0305 76.8198 23.3718C76.204 22.7131 75.7045 21.9403 75.3341 21.0749C74.966 20.2116 74.7786 19.301 74.7786 18.3711C74.7786 17.439 74.9595 16.5348 75.3148 15.6867C75.67 14.8363 76.1695 14.0721 76.7982 13.4134C77.4269 12.7547 78.1611 12.2273 78.9836 11.8441C79.8018 11.4609 80.7018 11.2672 81.6577 11.2672C82.5835 11.2672 83.462 11.4609 84.2673 11.8441C85.0725 12.2273 85.7873 12.7547 86.388 13.4134C86.9909 14.0721 87.4753 14.8385 87.8328 15.6888C88.1815 16.5348 88.3624 17.439 88.3624 18.3689Z" fill="white"/>
<path d="M111.818 25.4944L104.991 16.3626C104.892 16.2313 104.904 16.0505 105.019 15.9343L110.289 10.5396C110.879 9.93468 111.043 9.07576 110.716 8.29648C110.388 7.5172 109.658 7.035 108.814 7.035C108.177 7.035 107.557 7.29548 107.109 7.74754L99.0416 15.9299V3.03744C99.0416 1.75658 97.9996 0.712524 96.7163 0.712524C95.4374 0.712524 94.3975 1.75228 94.3975 3.03098V26.7064C94.3975 28.0152 95.4611 29.0786 96.7702 29.0786C98.0211 29.0786 99.0395 28.0604 99.0395 26.8097V21.9833L101.671 19.3226L108.194 28.1551C108.621 28.732 109.303 29.0765 110.02 29.0765C110.873 29.0765 111.641 28.6029 112.023 27.8387C112.41 27.0766 112.328 26.1789 111.818 25.4944Z" fill="white"/>
</svg>
